<?xml version="1.0" encoding="UTF-8"?>
<!-- Created with Inkscape (http://www.inkscape.org/) -->
<svg width="173.3mm" height="87.312mm" version="1.1" viewBox="0 0 173.3 87.312" xmlns="http://www.w3.org/2000/svg" xmlns:cc="http://creativecommons.org/ns#" xmlns:dc="http://purl.org/dc/elements/1.1/" xmlns:rdf="http://www.w3.org/1999/02/22-rdf-syntax-ns#"><defs><marker id="a" overflow="visible" orient="auto"><path transform="scale(.4) rotate(180) translate(10)" d="m0 0 5-5-17.5 5 17.5 5-5-5z" fill-rule="evenodd" stroke="#000" stroke-width="1pt"/></marker><marker id="Arrow1Mend" overflow="visible" orient="auto"><path transform="scale(.4) rotate(180) translate(10)" d="m0 0 5-5-17.5 5 17.5 5-5-5z" fill-rule="evenodd" stroke="#000" stroke-width="1pt"/></marker><marker id="g" overflow="visible" orient="auto"><path transform="matrix(-.4 0 0 -.4 -4 0)" d="m0 0 5-5-17.5 5 17.5 5z" fill-rule="evenodd" stroke="#000" stroke-width="1pt"/></marker><marker id="f" overflow="visible" orient="auto"><path transform="matrix(-.4 0 0 -.4 -4 0)" d="m0 0 5-5-17.5 5 17.5 5z" fill="#00f" fill-rule="evenodd" stroke="#00f" stroke-width="1pt"/></marker><marker id="h" overflow="visible" orient="auto"><path transform="matrix(-.4 0 0 -.4 -4 0)" d="m0 0 5-5-17.5 5 17.5 5z" fill="#00f" fill-rule="evenodd" stroke="#00f" stroke-width="1pt"/></marker><marker id="d" overflow="visible" orient="auto"><path transform="matrix(-.4 0 0 -.4 -4 0)" d="m0 0 5-5-17.5 5 17.5 5z" fill="#00f" fill-rule="evenodd" stroke="#00f" stroke-width="1pt"/></marker><marker id="b" overflow="visible" orient="auto"><path transform="matrix(-.4 0 0 -.4 -4 0)" d="m0 0 5-5-17.5 5 17.5 5z" fill="#00f" fill-rule="evenodd" stroke="#00f" stroke-width="1pt"/></marker><marker id="c" overflow="visible" orient="auto"><path transform="matrix(-.4 0 0 -.4 -4 0)" d="m0 0 5-5-17.5 5 17.5 5z" fill="#00f" fill-rule="evenodd" stroke="#00f" stroke-width="1pt"/></marker><marker id="e" overflow="visible" orient="auto"><path transform="matrix(-.4 0 0 -.4 -4 0)" d="m0 0 5-5-17.5 5 17.5 5z" fill="#00f" fill-rule="evenodd" stroke="#00f" stroke-width="1pt"/></marker></defs><metadata><rdf:RDF><cc:Work rdf:about=""><dc:format>image/svg+xml</dc:format><dc:type rdf:resource="http://purl.org/dc/dcmitype/StillImage"/><dc:title/></cc:Work></rdf:RDF></metadata><g transform="translate(2.6458 2.5135)"><rect x="-2.6458" y="-2.5135" width="173.3" height="87.312" ry="0" fill="#fff"/><path d="m5.2917 53.049v-9.2604" fill="none" marker-end="url(#a)" stroke="#000" stroke-width=".26458px"/><path d="m5.2917 38.497v-9.2604" fill="none" marker-end="url(#Arrow1Mend)" stroke="#000" stroke-width=".26458px"/></g><g transform="translate(-14.552 -4.6354)"><g stroke="#000" stroke-width=".26458"><rect x="47.625" y="29.771" width="22.49" height="6.6146" fill="none" stroke-dasharray="0.52916663, 0.52916663"/><rect x="70.115" y="29.771" width="22.49" height="6.6146" fill="#d7d7f4"/><rect x="92.604" y="29.771" width="22.49" height="6.6146" fill="#d7d7f4"/><rect x="115.09" y="29.771" width="22.49" height="6.6146" fill="none" stroke-dasharray="0.52916663, 0.52916663"/><rect x="137.58" y="29.771" width="22.49" height="6.6146" fill="none" stroke-dasharray="0.52916663, 0.52916663"/><rect x="160.07" y="29.771" width="22.49" height="6.6146" fill="#d7d7f4"/></g><g fill="#d7f4d7" stroke="#000" stroke-width=".26458"><rect x="92.604" y="44.323" width="22.49" height="6.6146"/><rect x="115.09" y="44.323" width="22.49" height="6.6146"/><rect x="137.58" y="44.323" width="22.49" height="6.6146"/><rect x="160.07" y="44.323" width="22.49" height="6.6146"/></g><text x="18.309231" y="49.435097" fill="#000000" font-family="sans-serif" font-size="3.5278px" letter-spacing="0px" stroke-width=".26458" word-spacing="0px" style="font-feature-settings:normal;font-variant-caps:normal;font-variant-ligatures:normal;font-variant-numeric:normal;line-height:1.25" xml:space="preserve"><tspan x="18.309231" y="49.435097" stroke-width=".26458">snapshot</tspan></text><text x="18.362614" y="11.230336" fill="#000000" font-family="sans-serif" font-size="3.5278px" letter-spacing="0px" stroke-width=".26458" word-spacing="0px" style="font-feature-settings:normal;font-variant-caps:normal;font-variant-ligatures:normal;font-variant-numeric:normal;line-height:1.25" xml:space="preserve"><tspan x="18.362614" y="11.230336" stroke-width=".26458">read</tspan></text><g stroke="#000"><path d="m17.198 21.833 168.01-1e-6" fill="none" stroke-dasharray="1.59, 1.59" stroke-width=".265"/><g stroke-width=".26458"><rect x="47.625" y="7.2812" width="22.49" height="6.6146" fill="#f4d7d7" stroke-dasharray="0.52916663, 0.26458332"/><rect x="115.09" y="7.2813" width="22.49" height="6.6146" fill="#d7f4d7"/><rect x="137.58" y="7.2812" width="22.49" height="6.6146" fill="#d7f4d7"/></g></g><g fill="#d7d7f4" stroke="#000" stroke-width=".26458"><rect x="70.115" y="7.2813" width="22.49" height="6.6146"/><rect x="92.604" y="7.2813" width="22.49" height="6.6146"/><rect x="160.07" y="7.2813" width="22.49" height="6.6146"/></g><text x="18.280743" y="35.463409" fill="#000000" font-family="sans-serif" font-size="3.5278px" letter-spacing="0px" stroke-width=".26458" word-spacing="0px" style="font-feature-settings:normal;font-variant-caps:normal;font-variant-ligatures:normal;font-variant-numeric:normal;line-height:1.25" xml:space="preserve"><tspan x="18.280743" y="35.463409" stroke-width=".26458">clone</tspan></text><rect x="47.625" y="58.875" width="22.49" height="6.6146" fill="#f4d7d7" stroke="#000" stroke-dasharray="0.52999997, 0.26499999" stroke-width=".265"/><text x="59.058754" y="63.505211" fill="#000000" font-family="sans-serif" font-size="10.583px" letter-spacing="0px" stroke-width=".26458" word-spacing="0px" style="line-height:1.25" xml:space="preserve"><tspan x="59.058754" y="63.505211" font-family="sans-serif" font-size="3.5278px" stroke-width=".26458" text-align="center" text-anchor="middle" style="font-feature-settings:normal;font-variant-caps:normal;font-variant-ligatures:normal;font-variant-numeric:normal">00000...</tspan></text><rect x="70.115" y="58.875" width="22.49" height="6.6146" fill="#f4d7d7" stroke="#000" stroke-dasharray="0.52999997, 0.26499999" stroke-width=".265"/><text x="81.54834" y="63.505211" fill="#000000" font-family="sans-serif" font-size="10.583px" letter-spacing="0px" stroke-width=".26458" word-spacing="0px" style="line-height:1.25" xml:space="preserve"><tspan x="81.54834" y="63.505211" font-family="sans-serif" font-size="3.5278px" stroke-width=".26458" text-align="center" text-anchor="middle" style="font-feature-settings:normal;font-variant-caps:normal;font-variant-ligatures:normal;font-variant-numeric:normal">00000...</tspan></text><rect x="92.604" y="58.875" width="22.49" height="6.6146" fill="#f4d7d7" stroke="#000" stroke-dasharray="0.52999997, 0.26499999" stroke-width=".265"/><text x="104.03793" y="63.505211" fill="#000000" font-family="sans-serif" font-size="10.583px" letter-spacing="0px" stroke-width=".26458" word-spacing="0px" style="line-height:1.25" xml:space="preserve"><tspan x="104.03793" y="63.505211" font-family="sans-serif" font-size="3.5278px" stroke-width=".26458" text-align="center" text-anchor="middle" style="font-feature-settings:normal;font-variant-caps:normal;font-variant-ligatures:normal;font-variant-numeric:normal">00000...</tspan></text><rect x="115.09" y="58.875" width="22.49" height="6.6146" fill="#f4d7d7" stroke="#000" stroke-dasharray="0.52999997, 0.26499999" stroke-width=".265"/><text x="126.52751" y="63.505211" fill="#000000" font-family="sans-serif" font-size="10.583px" letter-spacing="0px" stroke-width=".26458" word-spacing="0px" style="line-height:1.25" xml:space="preserve"><tspan x="126.52751" y="63.505211" font-family="sans-serif" font-size="3.5278px" stroke-width=".26458" text-align="center" text-anchor="middle" style="font-feature-settings:normal;font-variant-caps:normal;font-variant-ligatures:normal;font-variant-numeric:normal">00000...</tspan></text><rect x="137.58" y="58.875" width="22.49" height="6.6146" fill="#f4d7d7" stroke="#000" stroke-dasharray="0.52999997, 0.26499999" stroke-width=".265"/><text x="149.01709" y="63.505211" fill="#000000" font-family="sans-serif" font-size="10.583px" letter-spacing="0px" stroke-width=".26458" word-spacing="0px" style="line-height:1.25" xml:space="preserve"><tspan x="149.01709" y="63.505211" font-family="sans-serif" font-size="3.5278px" stroke-width=".26458" text-align="center" text-anchor="middle" style="font-feature-settings:normal;font-variant-caps:normal;font-variant-ligatures:normal;font-variant-numeric:normal">00000...</tspan></text><rect x="160.07" y="58.875" width="22.49" height="6.6146" fill="#f4d7d7" stroke="#000" stroke-dasharray="0.52999997, 0.26499999" stroke-width=".265"/><text x="171.50665" y="63.505211" fill="#000000" font-family="sans-serif" font-size="10.583px" letter-spacing="0px" stroke-width=".26458" word-spacing="0px" style="line-height:1.25" xml:space="preserve"><tspan x="171.50665" y="63.505211" font-family="sans-serif" font-size="3.5278px" stroke-width=".26458" text-align="center" text-anchor="middle" style="font-feature-settings:normal;font-variant-caps:normal;font-variant-ligatures:normal;font-variant-numeric:normal">00000...</tspan></text><text x="18.309223" y="63.987183" fill="#000000" font-family="sans-serif" font-size="3.5278px" letter-spacing="0px" stroke-width=".26458" word-spacing="0px" style="font-feature-settings:normal;font-variant-caps:normal;font-variant-ligatures:normal;font-variant-numeric:normal;line-height:1.25" xml:space="preserve"><tspan x="18.309223" y="63.987183" stroke-width=".26458">zeroes_dev</tspan></text><g fill="none"><rect x="47.625" y="44.323" width="22.49" height="6.6146" stroke="#000" stroke-dasharray="0.52916663, 0.52916663" stroke-width=".26458"/><rect x="70.115" y="44.323" width="22.49" height="6.6146" stroke="#000" stroke-dasharray="0.52916663, 0.52916663" stroke-width=".26458"/><rect x="39.688" y="27.125" width="145.52" height="11.906" ry="1.3229" stroke="#808080" stroke-width=".265"/><rect x="39.688" y="41.677" width="145.52" height="11.906" ry="1.3229" stroke="#808080" stroke-width=".265"/></g><g fill="#00f" stroke="#00f" stroke-width=".265"><path d="m80.698 13.896v15.875" marker-end="url(#c)"/><path d="m58.208 13.896v44.979" marker-end="url(#b)"/><path d="m103.19 13.896v15.875" marker-end="url(#d)"/><path d="m171.98 13.896v15.875" marker-end="url(#h)"/><path d="m127 13.896v30.427" marker-end="url(#f)"/><path d="m149.49 13.896v30.427" marker-end="url(#g)"/><path d="m124.35 74.75 10.583 3e-6" marker-end="url(#e)"/></g><g stroke-width=".26458"><text x="137.58331" y="76.072906" fill="#000000" font-family="sans-serif" font-size="3.5278px" letter-spacing="0px" word-spacing="0px" style="font-feature-settings:normal;font-variant-caps:normal;font-variant-ligatures:normal;font-variant-numeric:normal;line-height:1.25" xml:space="preserve"><tspan x="137.58331" y="76.072906" font-family="sans-serif" font-size="2.8222px" stroke-width=".26458" style="font-feature-settings:normal;font-variant-caps:normal;font-variant-ligatures:normal;font-variant-numeric:normal">read cluster</tspan></text><rect x="124.35" y="78.719" width="10.583" height="2.6458" fill="none" stroke="#000" stroke-dasharray="0.52916663, 0.52916663"/><text x="137.58331" y="81.364571" fill="#000000" font-family="sans-serif" font-size="3.5278px" letter-spacing="0px" word-spacing="0px" style="font-feature-settings:normal;font-variant-caps:normal;font-variant-ligatures:normal;font-variant-numeric:normal;line-height:1.25" xml:space="preserve"><tspan x="137.58331" y="81.364571" font-family="sans-serif" font-size="2.8222px" stroke-width=".26458" style="font-feature-settings:normal;font-variant-caps:normal;font-variant-ligatures:normal;font-variant-numeric:normal">unallocated cluster</tspan></text></g><rect x="124.35" y="84.01" width="10.583" height="2.6458" fill="none" stroke="#000" stroke-width=".265"/><text x="137.58331" y="86.656242" fill="#000000" font-family="sans-serif" font-size="3.5278px" letter-spacing="0px" stroke-width=".26458" word-spacing="0px" style="font-feature-settings:normal;font-variant-caps:normal;font-variant-ligatures:normal;font-variant-numeric:normal;line-height:1.25" xml:space="preserve"><tspan x="137.58331" y="86.656242" font-family="sans-serif" font-size="2.8222px" stroke-width=".26458" style="font-feature-settings:normal;font-variant-caps:normal;font-variant-ligatures:normal;font-variant-numeric:normal">allocated cluster</tspan></text></g></svg>
