<?xml version="1.0" encoding="UTF-8"?>
<!-- Created with Inkscape (http://www.inkscape.org/) -->
<svg width="178.59mm" height="51.594mm" version="1.1" viewBox="0 0 178.59 51.594" xmlns="http://www.w3.org/2000/svg" xmlns:cc="http://creativecommons.org/ns#" xmlns:dc="http://purl.org/dc/elements/1.1/" xmlns:rdf="http://www.w3.org/1999/02/22-rdf-syntax-ns#">
 <title>Thin Provisioning</title>
 <defs>
  <marker id="marker2036" overflow="visible" orient="auto">
   <path transform="matrix(-.4 0 0 -.4 -4 0)" d="m0 0 5-5-17.5 5 17.5 5z" fill-rule="evenodd" stroke="#000" stroke-width="1pt"/>
  </marker>
  <marker id="marker1960" overflow="visible" orient="auto">
   <path transform="matrix(-.4 0 0 -.4 -4 0)" d="m0 0 5-5-17.5 5 17.5 5z" fill-rule="evenodd" stroke="#000" stroke-width="1pt"/>
  </marker>
  <marker id="marker1890" overflow="visible" orient="auto">
   <path transform="matrix(-.4 0 0 -.4 -4 0)" d="m0 0 5-5-17.5 5 17.5 5z" fill-rule="evenodd" stroke="#000" stroke-width="1pt"/>
  </marker>
  <marker id="marker1826" overflow="visible" orient="auto">
   <path transform="matrix(-.4 0 0 -.4 -4 0)" d="m0 0 5-5-17.5 5 17.5 5z" fill-rule="evenodd" stroke="#000" stroke-width="1pt"/>
  </marker>
  <marker id="marker1816" overflow="visible" orient="auto">
   <path transform="matrix(-.4 0 0 -.4 -4 0)" d="m0 0 5-5-17.5 5 17.5 5z" fill-rule="evenodd" stroke="#000" stroke-width="1pt"/>
  </marker>
  <marker id="Arrow1Mend" overflow="visible" orient="auto">
   <path transform="matrix(-.4 0 0 -.4 -4 0)" d="m0 0 5-5-17.5 5 17.5 5z" fill-rule="evenodd" stroke="#000" stroke-width="1pt"/>
  </marker>
 </defs>
 <metadata>
  <rdf:RDF>
   <cc:Work rdf:about="">
    <dc:format>image/svg+xml</dc:format>
    <dc:type rdf:resource="http://purl.org/dc/dcmitype/StillImage"/>
    <dc:title>Thin Provisioning</dc:title>
   </cc:Work>
  </rdf:RDF>
 </metadata>
 <g transform="translate(1.3229 1.0729)">
  <rect x="-1.3229" y="-1.0729" width="178.59" height="51.594" fill="#fffffe" stroke-width=".26458"/>
 </g>
 <g transform="translate(-5.2917 -5.9583)">
  <g stroke="#000">
   <g stroke-width=".26458">
    <rect x="44.979" y="32.417" width="22.49" height="6.6146" fill="none" stroke-dasharray="0.52916663, 0.52916663"/>
    <rect x="67.469" y="32.417" width="22.49" height="6.6146" fill="#d7d7f4"/>
    <rect x="89.958" y="32.417" width="22.49" height="6.6146" fill="#d7d7f4"/>
    <rect x="112.45" y="32.417" width="22.49" height="6.6146" fill="none" stroke-dasharray="0.52916663, 0.52916663"/>
    <rect x="134.94" y="32.417" width="22.49" height="6.6146" fill="none" stroke-dasharray="0.52916663, 0.52916663"/>
    <rect x="157.43" y="32.417" width="22.49" height="6.6146" fill="#d7d7f4"/>
   </g>
   <rect x="44.979" y="46.969" width="22.49" height="6.6146" fill="#f4d7d7" stroke-dasharray="0.52999997, 0.26499999" stroke-width=".265"/>
  </g>
  <text x="56.412949" y="51.598957" fill="#000000" font-family="sans-serif" font-size="10.583px" letter-spacing="0px" stroke-width=".26458" word-spacing="0px" style="line-height:1.25" xml:space="preserve"><tspan x="56.412949" y="51.598957" font-family="sans-serif" font-size="3.5278px" stroke-width=".26458" text-align="center" text-anchor="middle" style="font-feature-settings:normal;font-variant-caps:normal;font-variant-ligatures:normal;font-variant-numeric:normal">00000...</tspan></text>
  <rect x="67.469" y="46.969" width="22.49" height="6.6146" fill="#f4d7d7" stroke="#000" stroke-dasharray="0.52999997, 0.26499999" stroke-width=".265"/>
  <text x="78.902527" y="51.598961" fill="#000000" font-family="sans-serif" font-size="10.583px" letter-spacing="0px" stroke-width=".26458" word-spacing="0px" style="line-height:1.25" xml:space="preserve"><tspan x="78.902527" y="51.598961" font-family="sans-serif" font-size="3.5278px" stroke-width=".26458" text-align="center" text-anchor="middle" style="font-feature-settings:normal;font-variant-caps:normal;font-variant-ligatures:normal;font-variant-numeric:normal">00000...</tspan></text>
  <rect x="89.958" y="46.969" width="22.49" height="6.6146" fill="#f4d7d7" stroke="#000" stroke-dasharray="0.52999997, 0.26499999" stroke-width=".265"/>
  <text x="101.39211" y="51.598961" fill="#000000" font-family="sans-serif" font-size="10.583px" letter-spacing="0px" stroke-width=".26458" word-spacing="0px" style="line-height:1.25" xml:space="preserve"><tspan x="101.39211" y="51.598961" font-family="sans-serif" font-size="3.5278px" stroke-width=".26458" text-align="center" text-anchor="middle" style="font-feature-settings:normal;font-variant-caps:normal;font-variant-ligatures:normal;font-variant-numeric:normal">00000...</tspan></text>
  <rect x="112.45" y="46.969" width="22.49" height="6.6146" fill="#f4d7d7" stroke="#000" stroke-dasharray="0.52999997, 0.26499999" stroke-width=".265"/>
  <text x="123.88169" y="51.598961" fill="#000000" font-family="sans-serif" font-size="10.583px" letter-spacing="0px" stroke-width=".26458" word-spacing="0px" style="line-height:1.25" xml:space="preserve"><tspan x="123.88169" y="51.598961" font-family="sans-serif" font-size="3.5278px" stroke-width=".26458" text-align="center" text-anchor="middle" style="font-feature-settings:normal;font-variant-caps:normal;font-variant-ligatures:normal;font-variant-numeric:normal">00000...</tspan></text>
  <rect x="134.94" y="46.969" width="22.49" height="6.6146" fill="#f4d7d7" stroke="#000" stroke-dasharray="0.52999997, 0.26499999" stroke-width=".265"/>
  <text x="146.37128" y="51.598957" fill="#000000" font-family="sans-serif" font-size="10.583px" letter-spacing="0px" stroke-width=".26458" word-spacing="0px" style="line-height:1.25" xml:space="preserve"><tspan x="146.37128" y="51.598957" font-family="sans-serif" font-size="3.5278px" stroke-width=".26458" text-align="center" text-anchor="middle" style="font-feature-settings:normal;font-variant-caps:normal;font-variant-ligatures:normal;font-variant-numeric:normal">00000...</tspan></text>
  <rect x="157.43" y="46.969" width="22.49" height="6.6146" fill="#f4d7d7" stroke="#000" stroke-dasharray="0.52999997, 0.26499999" stroke-width=".265"/>
  <g fill="#000000" font-family="sans-serif" letter-spacing="0px" stroke-width=".26458" word-spacing="0px">
   <text x="168.86086" y="51.598961" font-size="10.583px" style="line-height:1.25" xml:space="preserve"><tspan x="168.86086" y="51.598961" font-family="sans-serif" font-size="3.5278px" stroke-width=".26458" text-align="center" text-anchor="middle" style="font-feature-settings:normal;font-variant-caps:normal;font-variant-ligatures:normal;font-variant-numeric:normal">00000...</tspan></text>
   <text x="6.6430736" y="51.680019" font-size="3.5278px" style="font-feature-settings:normal;font-variant-caps:normal;font-variant-ligatures:normal;font-variant-numeric:normal;line-height:1.25" xml:space="preserve"><tspan x="6.6430736" y="51.680019" stroke-width=".26458">zeroes_dev</tspan></text>
   <text x="6.6296382" y="12.539818" font-size="3.5278px" style="font-feature-settings:normal;font-variant-caps:normal;font-variant-ligatures:normal;font-variant-numeric:normal;line-height:1.25" xml:space="preserve"><tspan x="6.6296382" y="12.539818">Thin-provisioned</tspan><tspan x="6.6296382" y="16.949539">volume</tspan></text>
  </g>
  <path d="m6.6146 24.479 173.3 1e-6" fill="none" stroke="#000" stroke-dasharray="1.59, 1.59" stroke-width=".265"/>
  <g fill="#f4d7d7" stroke="#000" stroke-dasharray="0.52916663, 0.26458332" stroke-width=".26458">
   <rect x="44.979" y="9.9271" width="22.49" height="6.6146"/>
   <rect x="112.45" y="9.9271" width="22.49" height="6.6146"/>
   <rect x="134.94" y="9.9271" width="22.49" height="6.6146"/>
  </g>
  <g fill="#d7d7f4" stroke="#000" stroke-width=".26458">
   <rect x="67.469" y="9.9271" width="22.49" height="6.6146"/>
   <rect x="89.958" y="9.9271" width="22.49" height="6.6146"/>
   <rect x="157.43" y="9.9271" width="22.49" height="6.6146"/>
  </g>
  <g fill="none" stroke="#000" stroke-width=".26458px">
   <path d="m78.052 16.542v15.875" marker-end="url(#marker1960)"/>
   <path d="m55.562 16.542v30.427" marker-end="url(#marker2036)"/>
   <path d="m100.54 16.542v15.875" marker-end="url(#marker1890)"/>
   <path d="m169.33 16.542v15.875" marker-end="url(#Arrow1Mend)"/>
   <path d="m124.35 16.542v30.427" marker-end="url(#marker1826)"/>
   <path d="m146.84 16.542v30.427" marker-end="url(#marker1816)"/>
  </g>
  <text x="6.614583" y="37.708332" fill="#000000" font-family="sans-serif" font-size="3.5278px" letter-spacing="0px" stroke-width=".26458" word-spacing="0px" style="font-feature-settings:normal;font-variant-caps:normal;font-variant-ligatures:normal;font-variant-numeric:normal;line-height:1.25" xml:space="preserve"><tspan x="6.614583" y="37.708332" stroke-width=".26458">active clusters</tspan></text>
  <rect x="37.042" y="7.2812" width="145.52" height="11.906" ry="1.3229" fill="none" stroke="#000" stroke-width=".5"/>
  <rect x="37.042" y="29.771" width="145.52" height="26.458" ry="1.3229" fill="none" stroke="#000" stroke-width=".5"/>
 </g>
</svg>
