<?xml version="1.0" encoding="UTF-8"?>
<!-- Created with Inkscape (http://www.inkscape.org/) -->
<svg width="181.24mm" height="79.375mm" version="1.1" viewBox="0 0 181.24 79.375" xmlns="http://www.w3.org/2000/svg" xmlns:cc="http://creativecommons.org/ns#" xmlns:dc="http://purl.org/dc/elements/1.1/" xmlns:rdf="http://www.w3.org/1999/02/22-rdf-syntax-ns#"><title>Thin Provisioning</title><defs><marker id="marker2036" overflow="visible" orient="auto"><path transform="matrix(-.4 0 0 -.4 -4 0)" d="m0 0 5-5-17.5 5 17.5 5z" fill-rule="evenodd" stroke="#000" stroke-width="1pt"/></marker><marker id="marker1960" overflow="visible" orient="auto"><path transform="matrix(-.4 0 0 -.4 -4 0)" d="m0 0 5-5-17.5 5 17.5 5z" fill-rule="evenodd" stroke="#000" stroke-width="1pt"/></marker><marker id="marker1890" overflow="visible" orient="auto"><path transform="matrix(-.4 0 0 -.4 -4 0)" d="m0 0 5-5-17.5 5 17.5 5z" fill-rule="evenodd" stroke="#000" stroke-width="1pt"/></marker><marker id="marker1826" overflow="visible" orient="auto"><path transform="matrix(-.4 0 0 -.4 -4 0)" d="m0 0 5-5-17.5 5 17.5 5z" fill-rule="evenodd" stroke="#000" stroke-width="1pt"/></marker><marker id="marker1816" overflow="visible" orient="auto"><path transform="matrix(-.4 0 0 -.4 -4 0)" d="m0 0 5-5-17.5 5 17.5 5z" fill-rule="evenodd" stroke="#000" stroke-width="1pt"/></marker><marker id="Arrow1Mend" overflow="visible" orient="auto"><path transform="matrix(-.4 0 0 -.4 -4 0)" d="m0 0 5-5-17.5 5 17.5 5z" fill-rule="evenodd" stroke="#000" stroke-width="1pt"/></marker><marker id="marker11771-4-9" overflow="visible" orient="auto"><path transform="matrix(-.4 0 0 -.4 -4 0)" d="m0 0 5-5-17.5 5 17.5 5z" fill="#f00" fill-rule="evenodd" stroke="#ff2a2a" stroke-width="1pt"/></marker><marker id="marker1826-2-4-7-1-7" overflow="visible" orient="auto"><path transform="matrix(-.4 0 0 -.4 -4 0)" d="m0 0 5-5-17.5 5 17.5 5z" fill="#00f" fill-rule="evenodd" stroke="#00f" stroke-width="1pt"/></marker></defs><metadata><rdf:RDF><cc:Work rdf:about=""><dc:format>image/svg+xml</dc:format><dc:type rdf:resource="http://purl.org/dc/dcmitype/StillImage"/><dc:title>Thin Provisioning</dc:title></cc:Work></rdf:RDF></metadata><g transform="translate(2.6458 2.3956)"><rect x="-2.6458" y="-2.3956" width="181.24" height="79.375" fill="#fffffe" stroke-width=".26458"/></g><g transform="translate(-3.9688 -4.6356)"><g stroke="#000"><g stroke-width=".26458"><rect x="44.979" y="32.417" width="22.49" height="6.6146" fill="none" stroke-dasharray="0.52916663, 0.52916663"/><rect x="67.469" y="32.417" width="22.49" height="6.6146" fill="#d7d7f4"/><rect x="89.958" y="32.417" width="22.49" height="6.6146" fill="#d7d7f4"/><rect x="112.45" y="32.417" width="22.49" height="6.6146" fill="none" stroke-dasharray="0.52916663, 0.52916663"/><rect x="134.94" y="32.417" width="22.49" height="6.6146" fill="none" stroke-dasharray="0.52916663, 0.52916663"/><rect x="157.43" y="32.417" width="22.49" height="6.6146" fill="#d7d7f4"/></g><rect x="44.979" y="46.969" width="22.49" height="6.6146" fill="#f4d7d7" stroke-dasharray="0.52999997, 0.26499999" stroke-width=".265"/></g><text x="56.412949" y="51.598957" fill="#000000" font-family="sans-serif" font-size="10.583px" letter-spacing="0px" stroke-width=".26458" word-spacing="0px" style="line-height:1.25" xml:space="preserve"><tspan x="56.412949" y="51.598957" font-family="sans-serif" font-size="3.5278px" stroke-width=".26458" text-align="center" text-anchor="middle" style="font-feature-settings:normal;font-variant-caps:normal;font-variant-ligatures:normal;font-variant-numeric:normal">00000...</tspan></text><rect x="67.469" y="46.969" width="22.49" height="6.6146" fill="#f4d7d7" stroke="#000" stroke-dasharray="0.52999997, 0.26499999" stroke-width=".265"/><text x="78.902527" y="51.598961" fill="#000000" font-family="sans-serif" font-size="10.583px" letter-spacing="0px" stroke-width=".26458" word-spacing="0px" style="line-height:1.25" xml:space="preserve"><tspan x="78.902527" y="51.598961" font-family="sans-serif" font-size="3.5278px" stroke-width=".26458" text-align="center" text-anchor="middle" style="font-feature-settings:normal;font-variant-caps:normal;font-variant-ligatures:normal;font-variant-numeric:normal">00000...</tspan></text><rect x="89.958" y="46.969" width="22.49" height="6.6146" fill="#f4d7d7" stroke="#000" stroke-dasharray="0.52999997, 0.26499999" stroke-width=".265"/><text x="101.39211" y="51.598961" fill="#000000" font-family="sans-serif" font-size="10.583px" letter-spacing="0px" stroke-width=".26458" word-spacing="0px" style="line-height:1.25" xml:space="preserve"><tspan x="101.39211" y="51.598961" font-family="sans-serif" font-size="3.5278px" stroke-width=".26458" text-align="center" text-anchor="middle" style="font-feature-settings:normal;font-variant-caps:normal;font-variant-ligatures:normal;font-variant-numeric:normal">00000...</tspan></text><rect x="112.45" y="46.969" width="22.49" height="6.6146" fill="#f4d7d7" stroke="#000" stroke-dasharray="0.52999997, 0.26499999" stroke-width=".265"/><text x="123.88169" y="51.598961" fill="#000000" font-family="sans-serif" font-size="10.583px" letter-spacing="0px" stroke-width=".26458" word-spacing="0px" style="line-height:1.25" xml:space="preserve"><tspan x="123.88169" y="51.598961" font-family="sans-serif" font-size="3.5278px" stroke-width=".26458" text-align="center" text-anchor="middle" style="font-feature-settings:normal;font-variant-caps:normal;font-variant-ligatures:normal;font-variant-numeric:normal">00000...</tspan></text><rect x="134.94" y="46.969" width="22.49" height="6.6146" fill="#f4d7d7" stroke="#000" stroke-dasharray="0.52999997, 0.26499999" stroke-width=".265"/><text x="146.37128" y="51.598957" fill="#000000" font-family="sans-serif" font-size="10.583px" letter-spacing="0px" stroke-width=".26458" word-spacing="0px" style="line-height:1.25" xml:space="preserve"><tspan x="146.37128" y="51.598957" font-family="sans-serif" font-size="3.5278px" stroke-width=".26458" text-align="center" text-anchor="middle" style="font-feature-settings:normal;font-variant-caps:normal;font-variant-ligatures:normal;font-variant-numeric:normal">00000...</tspan></text><rect x="157.43" y="46.969" width="22.49" height="6.6146" fill="#f4d7d7" stroke="#000" stroke-dasharray="0.52999997, 0.26499999" stroke-width=".265"/><g font-family="sans-serif" letter-spacing="0px" stroke-width=".26458" word-spacing="0px"><text x="168.86086" y="51.598961" font-size="10.583px" style="line-height:1.25" xml:space="preserve"><tspan x="168.86086" y="51.598961" font-family="sans-serif" font-size="3.5278px" stroke-width=".26458" text-align="center" text-anchor="middle" style="font-feature-settings:normal;font-variant-caps:normal;font-variant-ligatures:normal;font-variant-numeric:normal">00000...</tspan></text><text x="6.6430736" y="51.680019" font-size="3.5278px" style="font-feature-settings:normal;font-variant-caps:normal;font-variant-ligatures:normal;font-variant-numeric:normal;line-height:1.25" xml:space="preserve"><tspan x="6.6430736" y="51.680019" stroke-width=".26458">zeroes_dev</tspan></text><text x="6.6296382" y="12.539818" font-size="3.5278px" style="font-feature-settings:normal;font-variant-caps:normal;font-variant-ligatures:normal;font-variant-numeric:normal;line-height:1.25" xml:space="preserve"><tspan x="6.6296382" y="12.539818">Thin-provisioned</tspan><tspan x="6.6296382" y="16.949539">volume</tspan></text></g><g stroke="#000"><path d="m6.6146 24.479 173.3 1e-6" fill="none" stroke-dasharray="1.59, 1.59" stroke-width=".265"/><g fill="#f4d7d7" stroke-dasharray="0.52916663, 0.26458332" stroke-width=".26458"><rect x="44.979" y="9.9271" width="22.49" height="6.6146"/><rect x="112.45" y="9.9271" width="22.49" height="6.6146"/><rect x="134.94" y="9.9271" width="22.49" height="6.6146"/></g><g fill="#d7d7f4" stroke-width=".26458"><rect x="67.469" y="9.9271" width="22.49" height="6.6146"/><rect x="89.958" y="9.9271" width="22.49" height="6.6146"/><rect x="157.43" y="9.9271" width="22.49" height="6.6146"/></g></g><text x="6.614583" y="37.708332" fill="#000000" font-family="sans-serif" font-size="3.5278px" letter-spacing="0px" stroke-width=".26458" word-spacing="0px" style="font-feature-settings:normal;font-variant-caps:normal;font-variant-ligatures:normal;font-variant-numeric:normal;line-height:1.25" xml:space="preserve"><tspan x="6.614583" y="37.708332" stroke-width=".26458">active clusters</tspan></text><rect x="37.042" y="7.2812" width="145.52" height="11.906" ry="1.3229" fill="none" stroke="#999" stroke-width=".5"/><rect x="37.042" y="29.771" width="145.52" height="26.458" ry="1.3229" fill="none" stroke="#999" stroke-width=".5"/><g fill="#00f" stroke="#00f"><g stroke-width=".26458"><path d="m78.052 16.542v15.875" marker-end="url(#marker1960)"/><path d="m55.562 16.542v30.427" marker-end="url(#marker2036)"/><path d="m100.54 16.542v15.875" marker-end="url(#marker1890)"/><path d="m169.33 16.542v15.875" marker-end="url(#Arrow1Mend)"/><path d="m124.35 16.542v30.427" marker-end="url(#marker1826)"/><path d="m146.84 16.542v30.427" marker-end="url(#marker1816)"/></g><path d="m132.29 61.521 10.583 1e-5" marker-end="url(#marker1826-2-4-7-1-7)" stroke-width=".265"/></g><path d="m132.29 66.813h10.583" fill="#f00" marker-end="url(#marker11771-4-9)" stroke="#ff2a2a" stroke-width=".265"/><g stroke-width=".26458"><text x="145.52083" y="62.843975" fill="#000000" font-family="sans-serif" font-size="3.5278px" letter-spacing="0px" word-spacing="0px" style="font-feature-settings:normal;font-variant-caps:normal;font-variant-ligatures:normal;font-variant-numeric:normal;line-height:1.25" xml:space="preserve"><tspan x="145.52083" y="62.843975" font-family="sans-serif" font-size="2.8222px" stroke-width=".26458" style="font-feature-settings:normal;font-variant-caps:normal;font-variant-ligatures:normal;font-variant-numeric:normal">read</tspan></text><text x="145.52083" y="68.135651" fill="#000000" font-family="sans-serif" font-size="3.5278px" letter-spacing="0px" word-spacing="0px" style="font-feature-settings:normal;font-variant-caps:normal;font-variant-ligatures:normal;font-variant-numeric:normal;line-height:1.25" xml:space="preserve"><tspan x="145.52083" y="68.135651" font-family="sans-serif" font-size="2.8222px" stroke-width=".26458" style="font-feature-settings:normal;font-variant-caps:normal;font-variant-ligatures:normal;font-variant-numeric:normal">allocate and copy cluster</tspan></text><rect x="132.29" y="70.781" width="10.583" height="2.6458" fill="none" stroke="#000" stroke-dasharray="0.52916664, 0.52916664"/><text x="145.52083" y="73.427307" fill="#000000" font-family="sans-serif" font-size="3.5278px" letter-spacing="0px" word-spacing="0px" style="font-feature-settings:normal;font-variant-caps:normal;font-variant-ligatures:normal;font-variant-numeric:normal;line-height:1.25" xml:space="preserve"><tspan x="145.52083" y="73.427307" font-family="sans-serif" font-size="2.8222px" stroke-width=".26458" style="font-feature-settings:normal;font-variant-caps:normal;font-variant-ligatures:normal;font-variant-numeric:normal">unallocated cluster</tspan></text></g><rect x="132.29" y="76.073" width="10.583" height="2.6458" fill="none" stroke="#000" stroke-width=".265"/><text x="145.52083" y="78.718971" fill="#000000" font-family="sans-serif" font-size="3.5278px" letter-spacing="0px" stroke-width=".26458" word-spacing="0px" style="font-feature-settings:normal;font-variant-caps:normal;font-variant-ligatures:normal;font-variant-numeric:normal;line-height:1.25" xml:space="preserve"><tspan x="145.52083" y="78.718971" font-family="sans-serif" font-size="2.8222px" stroke-width=".26458" style="font-feature-settings:normal;font-variant-caps:normal;font-variant-ligatures:normal;font-variant-numeric:normal">allocated cluster</tspan></text></g></svg>
