<?xml version="1.0" encoding="UTF-8"?>
<!-- Created with Inkscape (http://www.inkscape.org/) -->
<svg width="169.33mm" height="89.958mm" version="1.1" viewBox="0 0 169.33 89.958" xmlns="http://www.w3.org/2000/svg" xmlns:cc="http://creativecommons.org/ns#" xmlns:dc="http://purl.org/dc/elements/1.1/" xmlns:rdf="http://www.w3.org/1999/02/22-rdf-syntax-ns#"><defs><marker id="h" overflow="visible" orient="auto"><path transform="matrix(-.4 0 0 -.4 -4 0)" d="m0 0 5-5-17.5 5 17.5 5z" fill-rule="evenodd" stroke="#000" stroke-width="1pt"/></marker><marker id="i" overflow="visible" orient="auto"><path transform="matrix(-.4 0 0 -.4 -4 0)" d="m0 0 5-5-17.5 5 17.5 5z" fill-rule="evenodd" stroke="#000" stroke-width="1pt"/></marker><marker id="Arrow1Mend" overflow="visible" orient="auto"><path transform="matrix(-.4 0 0 -.4 -4 0)" d="m0 0 5-5-17.5 5 17.5 5z" fill-rule="evenodd" stroke="#000" stroke-width="1pt"/></marker><marker id="e" overflow="visible" orient="auto"><path transform="matrix(.4 0 0 .4 4 0)" d="m0 0 5-5-17.5 5 17.5 5z" fill="#00f" fill-rule="evenodd" stroke="#00f" stroke-width="1pt"/></marker><marker id="g" overflow="visible" orient="auto"><path transform="matrix(.4 0 0 .4 4 0)" d="m0 0 5-5-17.5 5 17.5 5z" fill="#00f" fill-rule="evenodd" stroke="#00f" stroke-width="1pt"/></marker><marker id="Arrow1Mstart" overflow="visible" orient="auto"><path transform="matrix(.4 0 0 .4 4 0)" d="m0 0 5-5-17.5 5 17.5 5z" fill="#00f" fill-rule="evenodd" stroke="#00f" stroke-width="1pt"/></marker><marker id="j" overflow="visible" orient="auto"><path transform="matrix(.4 0 0 .4 4 0)" d="m0 0 5-5-17.5 5 17.5 5z" fill="#00f" fill-rule="evenodd" stroke="#00f" stroke-width="1pt"/></marker><marker id="f" overflow="visible" orient="auto"><path transform="matrix(.4 0 0 .4 4 0)" d="m0 0 5-5-17.5 5 17.5 5z" fill="#00f" fill-rule="evenodd" stroke="#00f" stroke-width="1pt"/></marker><marker id="a" overflow="visible" orient="auto"><path transform="matrix(.4 0 0 .4 4 0)" d="m0 0 5-5-17.5 5 17.5 5z" fill="#00f" fill-rule="evenodd" stroke="#00f" stroke-width="1pt"/></marker><marker id="d" overflow="visible" orient="auto"><path transform="matrix(.4 0 0 .4 4 0)" d="m0 0 5-5-17.5 5 17.5 5z" fill="#00f" fill-rule="evenodd" stroke="#00f" stroke-width="1pt"/></marker><marker id="b" overflow="visible" orient="auto"><path transform="matrix(.4 0 0 .4 4 0)" d="m0 0 5-5-17.5 5 17.5 5z" fill="#00f" fill-rule="evenodd" stroke="#00f" stroke-width="1pt"/></marker><marker id="c" overflow="visible" orient="auto"><path transform="matrix(.4 0 0 .4 4 0)" d="m0 0 5-5-17.5 5 17.5 5z" fill="#00f" fill-rule="evenodd" stroke="#00f" stroke-width="1pt"/></marker></defs><metadata><rdf:RDF><cc:Work rdf:about=""><dc:format>image/svg+xml</dc:format><dc:type rdf:resource="http://purl.org/dc/dcmitype/StillImage"/><dc:title/></cc:Work></rdf:RDF></metadata><g transform="translate(3.9687 2.5133)"><rect x="-3.9687" y="-2.5133" width="169.33" height="89.958" fill="#fff"/></g><g transform="translate(-37.042 -17.865)"><g stroke="#000" stroke-width=".26458"><rect transform="scale(1,-1)" x="66.146" y="-56.229" width="22.49" height="6.6146" fill="none" stroke-dasharray="0.52916663, 0.52916663"/><rect transform="scale(1,-1)" x="88.635" y="-56.229" width="22.49" height="6.6146" fill="#d7d7f4"/><rect transform="scale(1,-1)" x="111.13" y="-56.229" width="22.49" height="6.6146" fill="#d7d7f4"/><rect transform="scale(1,-1)" x="133.61" y="-56.229" width="22.49" height="6.6146" fill="none" stroke-dasharray="0.52916663, 0.52916663"/><rect transform="scale(1,-1)" x="156.1" y="-56.229" width="22.49" height="6.6146" fill="none" stroke-dasharray="0.52916663, 0.52916663"/><rect transform="scale(1,-1)" x="178.59" y="-56.229" width="22.49" height="6.6146" fill="#d7d7f4"/></g><g fill="#d7f4d7" stroke="#000" stroke-width=".26458"><rect transform="scale(1,-1)" x="111.13" y="-41.677" width="22.49" height="6.6146"/><rect transform="scale(1,-1)" x="133.61" y="-41.677" width="22.49" height="6.6146"/><rect transform="scale(1,-1)" x="156.1" y="-41.677" width="22.49" height="6.6146"/><rect transform="scale(1,-1)" x="178.59" y="-41.677" width="22.49" height="6.6146"/></g><text x="39.850315" y="38.377769" fill="#000000" font-family="sans-serif" font-size="3.5278px" letter-spacing="0px" stroke-width=".26458" word-spacing="0px" style="font-feature-settings:normal;font-variant-caps:normal;font-variant-ligatures:normal;font-variant-numeric:normal;line-height:1.25" xml:space="preserve"><tspan x="39.850315" y="38.377769" stroke-width=".26458">snapshot</tspan></text><text x="39.348198" y="97.549011" fill="#000000" font-family="sans-serif" font-size="3.5278px" letter-spacing="0px" stroke-width=".26458" word-spacing="0px" style="font-feature-settings:normal;font-variant-caps:normal;font-variant-ligatures:normal;font-variant-numeric:normal;line-height:1.25" xml:space="preserve"><tspan x="39.348198" y="97.549011">Inflated</tspan><tspan x="39.348198" y="101.95873">clone</tspan></text><g stroke="#000"><path d="m39.688 64.167 161.4 9e-6" fill="none" stroke-dasharray="1.59000006, 1.59000006" stroke-width=".265"/><g stroke-width=".26458"><rect transform="scale(1,-1)" x="66.146" y="-102.53" width="22.49" height="6.6146" fill="#f4d7d7"/><rect transform="scale(1,-1)" x="133.61" y="-102.53" width="22.49" height="6.6146" fill="#d7f4d7"/><rect transform="scale(1,-1)" x="156.1" y="-102.53" width="22.49" height="6.6146" fill="#d7f4d7"/></g></g><g fill="#d7d7f4" stroke="#000" stroke-width=".26458"><rect transform="scale(1,-1)" x="88.635" y="-102.53" width="22.49" height="6.6146"/><rect transform="scale(1,-1)" x="111.13" y="-102.53" width="22.49" height="6.6146"/><rect transform="scale(1,-1)" x="178.59" y="-102.53" width="22.49" height="6.6146"/></g><text x="39.821827" y="53.033295" fill="#000000" font-family="sans-serif" font-size="3.5278px" letter-spacing="0px" stroke-width=".26458" word-spacing="0px" style="font-feature-settings:normal;font-variant-caps:normal;font-variant-ligatures:normal;font-variant-numeric:normal;line-height:1.25" xml:space="preserve"><tspan x="39.821827" y="53.033295" stroke-width=".26458">clone</tspan></text><rect transform="scale(1,-1)" x="66.146" y="-27.125" width="22.49" height="6.6146" fill="#f4d7d7" stroke="#000" stroke-dasharray="0.52999997, 0.26499999" stroke-width=".265"/><text x="77.57962" y="25.063118" fill="#000000" font-family="sans-serif" font-size="10.583px" letter-spacing="0px" stroke-width=".26458" word-spacing="0px" style="line-height:1.25" xml:space="preserve"><tspan x="77.57962" y="25.063118" font-family="sans-serif" font-size="3.5278px" stroke-width=".26458" text-align="center" text-anchor="middle" style="font-feature-settings:normal;font-variant-caps:normal;font-variant-ligatures:normal;font-variant-numeric:normal">00000...</tspan></text><rect transform="scale(1,-1)" x="88.635" y="-27.125" width="22.49" height="6.6146" fill="#f4d7d7" stroke="#000" stroke-dasharray="0.52999997, 0.26499999" stroke-width=".265"/><text x="100.06921" y="25.063118" fill="#000000" font-family="sans-serif" font-size="10.583px" letter-spacing="0px" stroke-width=".26458" word-spacing="0px" style="line-height:1.25" xml:space="preserve"><tspan x="100.06921" y="25.063118" font-family="sans-serif" font-size="3.5278px" stroke-width=".26458" text-align="center" text-anchor="middle" style="font-feature-settings:normal;font-variant-caps:normal;font-variant-ligatures:normal;font-variant-numeric:normal">00000...</tspan></text><rect transform="scale(1,-1)" x="111.13" y="-27.125" width="22.49" height="6.6146" fill="#f4d7d7" stroke="#000" stroke-dasharray="0.52999997, 0.26499999" stroke-width=".265"/><text x="122.55879" y="25.063118" fill="#000000" font-family="sans-serif" font-size="10.583px" letter-spacing="0px" stroke-width=".26458" word-spacing="0px" style="line-height:1.25" xml:space="preserve"><tspan x="122.55879" y="25.063118" font-family="sans-serif" font-size="3.5278px" stroke-width=".26458" text-align="center" text-anchor="middle" style="font-feature-settings:normal;font-variant-caps:normal;font-variant-ligatures:normal;font-variant-numeric:normal">00000...</tspan></text><rect transform="scale(1,-1)" x="133.61" y="-27.125" width="22.49" height="6.6146" fill="#f4d7d7" stroke="#000" stroke-dasharray="0.52999997, 0.26499999" stroke-width=".265"/><text x="145.04839" y="25.063118" fill="#000000" font-family="sans-serif" font-size="10.583px" letter-spacing="0px" stroke-width=".26458" word-spacing="0px" style="line-height:1.25" xml:space="preserve"><tspan x="145.04839" y="25.063118" font-family="sans-serif" font-size="3.5278px" stroke-width=".26458" text-align="center" text-anchor="middle" style="font-feature-settings:normal;font-variant-caps:normal;font-variant-ligatures:normal;font-variant-numeric:normal">00000...</tspan></text><rect transform="scale(1,-1)" x="156.1" y="-27.125" width="22.49" height="6.6146" fill="#f4d7d7" stroke="#000" stroke-dasharray="0.52999997, 0.26499999" stroke-width=".265"/><text x="167.53796" y="25.063118" fill="#000000" font-family="sans-serif" font-size="10.583px" letter-spacing="0px" stroke-width=".26458" word-spacing="0px" style="line-height:1.25" xml:space="preserve"><tspan x="167.53796" y="25.063118" font-family="sans-serif" font-size="3.5278px" stroke-width=".26458" text-align="center" text-anchor="middle" style="font-feature-settings:normal;font-variant-caps:normal;font-variant-ligatures:normal;font-variant-numeric:normal">00000...</tspan></text><rect transform="scale(1,-1)" x="178.59" y="-27.125" width="22.49" height="6.6146" fill="#f4d7d7" stroke="#000" stroke-dasharray="0.53, 0.265" stroke-width=".265"/><text x="190.02751" y="25.063118" fill="#000000" font-family="sans-serif" font-size="10.583px" letter-spacing="0px" stroke-width=".26458" word-spacing="0px" style="line-height:1.25" xml:space="preserve"><tspan x="190.02751" y="25.063118" font-family="sans-serif" font-size="3.5278px" stroke-width=".26458" text-align="center" text-anchor="middle" style="font-feature-settings:normal;font-variant-caps:normal;font-variant-ligatures:normal;font-variant-numeric:normal">00000...</tspan></text><text x="39.850307" y="23.727493" fill="#000000" font-family="sans-serif" font-size="3.5278px" letter-spacing="0px" stroke-width=".26458" word-spacing="0px" style="font-feature-settings:normal;font-variant-caps:normal;font-variant-ligatures:normal;font-variant-numeric:normal;line-height:1.25" xml:space="preserve"><tspan x="39.850307" y="23.727493" stroke-width=".26458">zeroes_dev</tspan></text><g fill="none" stroke="#000"><rect transform="scale(1,-1)" x="66.146" y="-41.677" width="22.49" height="6.6146" stroke-dasharray="0.52916663, 0.52916663" stroke-width=".26458"/><rect transform="scale(1,-1)" x="88.635" y="-41.677" width="22.49" height="6.6146" stroke-dasharray="0.52916663, 0.52916663" stroke-width=".26458"/><rect x="66.146" y="72.104" width="134.94" height="7.9375" ry="2.6458" stroke-width=".5"/></g><text x="113.74464" y="77.262192" fill="#000000" font-family="sans-serif" font-size="3.5278px" letter-spacing="0px" stroke-width=".26458" word-spacing="0px" style="font-feature-settings:normal;font-variant-caps:normal;font-variant-ligatures:normal;font-variant-numeric:normal;line-height:1.25" xml:space="preserve"><tspan x="113.74464" y="77.262192" stroke-width=".26458">Allocate and copy</tspan></text><g fill="none" stroke-width=".265"><path d="m39.688 87.979 161.4 4e-6" stroke="#000" stroke-dasharray="1.59000008, 1.59000008"/><g stroke="#808080"><rect x="58.208" y="32.417" width="145.52" height="11.906" ry="1.3229"/><rect x="58.208" y="46.969" width="145.52" height="11.906" ry="1.3229"/><rect x="58.208" y="93.271" width="145.52" height="11.906" ry="1.3229"/></g></g><g fill="#00f" stroke="#00f" stroke-width=".265"><path d="m76.729 72.104v-44.979" marker-start="url(#e)"/><path d="m145.52 72.104v-30.427" marker-start="url(#g)"/><path d="m168.01 72.104v-30.427" marker-start="url(#Arrow1Mstart)"/><path d="m76.729 95.917 1.4e-5 -15.875" marker-start="url(#a)"/><path d="m145.52 95.917v-15.875" marker-start="url(#f)"/><path d="m168.01 95.917 1e-5 -15.875" marker-start="url(#j)"/></g><path d="m58.208 53.583c-7.4527 13.662-6.6489 28.799 0 44.979" fill="none" marker-end="url(#Arrow1Mend)" stroke="#000" stroke-width=".5"/><g fill="#00f" stroke="#00f" stroke-width=".265"><path d="m100.54 95.917v-39.688" marker-start="url(#d)" stroke-dasharray="1.58999992, 1.58999992"/><path d="m123.03 95.917v-39.688" marker-start="url(#b)" stroke-dasharray="1.58999994, 1.58999994"/><path d="m190.5 95.917v-39.688" marker-start="url(#c)" stroke-dasharray="1.58999994, 1.58999994"/></g><text x="39.498512" y="77.301338" fill="#000000" font-family="sans-serif" font-size="3.5278px" letter-spacing="0px" stroke-width=".26458" word-spacing="0px" style="font-feature-settings:normal;font-variant-caps:normal;font-variant-ligatures:normal;font-variant-numeric:normal;line-height:1.25" xml:space="preserve"><tspan x="39.498512" y="77.301338" stroke-width=".26458">Inflate</tspan></text><path d="m44.979 24.479v10.583" fill="none" marker-end="url(#h)" stroke="#000" stroke-width=".26458px"/><path d="m44.979 40.354v7.9375" fill="none" marker-end="url(#i)" stroke="#000" stroke-width=".26458px"/></g></svg>
