<?xml version="1.0" encoding="UTF-8"?>
<!-- Created with Inkscape (http://www.inkscape.org/) -->
<svg width="173.3mm" height="91.281mm" version="1.1" viewBox="0 0 173.3 91.281" xmlns="http://www.w3.org/2000/svg" xmlns:cc="http://creativecommons.org/ns#" xmlns:dc="http://purl.org/dc/elements/1.1/" xmlns:rdf="http://www.w3.org/1999/02/22-rdf-syntax-ns#"><defs><marker id="h" overflow="visible" orient="auto"><path transform="matrix(-.4 0 0 -.4 -4 0)" d="m0 0 5-5-17.5 5 17.5 5z" fill="#f00" fill-rule="evenodd" stroke="#ff2a2a" stroke-width="1pt"/></marker><marker id="e" overflow="visible" orient="auto"><path transform="matrix(-.4 0 0 -.4 -4 0)" d="m0 0 5-5-17.5 5 17.5 5z" fill="#00f" fill-rule="evenodd" stroke="#00f" stroke-width="1pt"/></marker><marker id="d" overflow="visible" orient="auto"><path transform="matrix(-.4 0 0 -.4 -4 0)" d="m0 0 5-5-17.5 5 17.5 5z" fill="#00f" fill-rule="evenodd" stroke="#00f" stroke-width="1pt"/></marker><marker id="g" overflow="visible" orient="auto"><path transform="matrix(-.4 0 0 -.4 -4 0)" d="m0 0 5-5-17.5 5 17.5 5z" fill="#f00" fill-rule="evenodd" stroke="#ff2a2a" stroke-width="1pt"/></marker><marker id="b" overflow="visible" orient="auto"><path transform="matrix(-.4 0 0 -.4 -4 0)" d="m0 0 5-5-17.5 5 17.5 5z" fill="#00f" fill-rule="evenodd" stroke="#00f" stroke-width="1pt"/></marker><marker id="c" overflow="visible" orient="auto"><path transform="matrix(-.4 0 0 -.4 -4 0)" d="m0 0 5-5-17.5 5 17.5 5z" fill="#00f" fill-rule="evenodd" stroke="#00f" stroke-width="1pt"/></marker><marker id="f" overflow="visible" orient="auto"><path transform="matrix(-.4 0 0 -.4 -4 0)" d="m0 0 5-5-17.5 5 17.5 5z" fill="#f00" fill-rule="evenodd" stroke="#ff2a2a" stroke-width="1pt"/></marker><marker id="a" overflow="visible" orient="auto"><path transform="matrix(-.4 0 0 -.4 -4 0)" d="m0 0 5-5-17.5 5 17.5 5z" fill-rule="evenodd" stroke="#000" stroke-width="1pt"/></marker><marker id="Arrow1Mend" overflow="visible" orient="auto"><path transform="matrix(-.4 0 0 -.4 -4 0)" d="m0 0 5-5-17.5 5 17.5 5z" fill-rule="evenodd" stroke="#000" stroke-width="1pt"/></marker></defs><metadata><rdf:RDF><cc:Work rdf:about=""><dc:format>image/svg+xml</dc:format><dc:type rdf:resource="http://purl.org/dc/dcmitype/StillImage"/><dc:title/></cc:Work></rdf:RDF></metadata><g transform="translate(3.9688 -99.351)"><rect x="-3.9688" y="99.351" width="173.3" height="91.281" ry="0" fill="#fff"/></g><g transform="translate(1.3229 -101.86)"><g stroke="#000" stroke-dasharray="0.52916663, 0.52916663" stroke-width=".26458"><rect x="31.75" y="127" width="22.49" height="6.6146" fill="none"/><rect x="99.219" y="127" width="22.49" height="6.6146" fill="#d7f4d7"/><rect x="121.71" y="127" width="22.49" height="6.6146" fill="none"/></g><g fill="#d7d7f4" stroke="#000" stroke-width=".26458"><rect x="76.729" y="141.55" width="22.49" height="6.6146"/><rect x="99.219" y="141.55" width="22.49" height="6.6146"/><rect x="121.71" y="141.55" width="22.49" height="6.6146"/><rect x="144.2" y="141.55" width="22.49" height="6.6146"/></g><text x="2.4342299" y="146.66425" fill="#000000" font-family="sans-serif" font-size="3.5278px" letter-spacing="0px" stroke-width=".26458" word-spacing="0px" style="font-feature-settings:normal;font-variant-caps:normal;font-variant-ligatures:normal;font-variant-numeric:normal;line-height:1.25" xml:space="preserve"><tspan x="2.4342299" y="146.66425" stroke-width=".26458">snapshot</tspan></text><text x="2.4876127" y="108.4595" fill="#000000" font-family="sans-serif" font-size="3.5278px" letter-spacing="0px" stroke-width=".26458" word-spacing="0px" style="font-feature-settings:normal;font-variant-caps:normal;font-variant-ligatures:normal;font-variant-numeric:normal;line-height:1.25" xml:space="preserve"><tspan x="2.4876127" y="108.4595" stroke-width=".26458">write</tspan></text><path d="m1.3229 119.06 168.01 1e-5" fill="none" stroke="#000" stroke-dasharray="1.59000004, 1.59000004" stroke-width=".265"/><rect x="99.219" y="104.51" width="22.49" height="6.6146" fill="#fff6d5" stroke="#000" stroke-width=".26458"/><text x="2.4057417" y="132.69257" fill="#000000" font-family="sans-serif" font-size="3.5278px" letter-spacing="0px" stroke-width=".26458" word-spacing="0px" style="font-feature-settings:normal;font-variant-caps:normal;font-variant-ligatures:normal;font-variant-numeric:normal;line-height:1.25" xml:space="preserve"><tspan x="2.4057417" y="132.69257" stroke-width=".26458">clone</tspan></text><rect x="31.75" y="156.1" width="22.49" height="6.6146" fill="#f4d7d7" stroke="#000" stroke-dasharray="0.52999997, 0.26499999" stroke-width=".265"/><text x="43.183758" y="160.73438" fill="#000000" font-family="sans-serif" font-size="10.583px" letter-spacing="0px" stroke-width=".26458" word-spacing="0px" style="line-height:1.25" xml:space="preserve"><tspan x="43.183758" y="160.73438" font-family="sans-serif" font-size="3.5278px" stroke-width=".26458" text-align="center" text-anchor="middle" style="font-feature-settings:normal;font-variant-caps:normal;font-variant-ligatures:normal;font-variant-numeric:normal">00000...</tspan></text><rect x="54.24" y="156.1" width="22.49" height="6.6146" fill="#f4d7d7" stroke="#000" stroke-dasharray="0.52999997, 0.26499999" stroke-width=".265"/><text x="65.673347" y="160.73438" fill="#000000" font-family="sans-serif" font-size="10.583px" letter-spacing="0px" stroke-width=".26458" word-spacing="0px" style="line-height:1.25" xml:space="preserve"><tspan x="65.673347" y="160.73438" font-family="sans-serif" font-size="3.5278px" stroke-width=".26458" text-align="center" text-anchor="middle" style="font-feature-settings:normal;font-variant-caps:normal;font-variant-ligatures:normal;font-variant-numeric:normal">00000...</tspan></text><rect x="76.729" y="156.1" width="22.49" height="6.6146" fill="#f4d7d7" stroke="#000" stroke-dasharray="0.52999997, 0.26499999" stroke-width=".265"/><text x="88.162926" y="160.73438" fill="#000000" font-family="sans-serif" font-size="10.583px" letter-spacing="0px" stroke-width=".26458" word-spacing="0px" style="line-height:1.25" xml:space="preserve"><tspan x="88.162926" y="160.73438" font-family="sans-serif" font-size="3.5278px" stroke-width=".26458" text-align="center" text-anchor="middle" style="font-feature-settings:normal;font-variant-caps:normal;font-variant-ligatures:normal;font-variant-numeric:normal">00000...</tspan></text><rect x="99.219" y="156.1" width="22.49" height="6.6146" fill="#f4d7d7" stroke="#000" stroke-dasharray="0.52999997, 0.26499999" stroke-width=".265"/><text x="110.65253" y="160.73438" fill="#000000" font-family="sans-serif" font-size="10.583px" letter-spacing="0px" stroke-width=".26458" word-spacing="0px" style="line-height:1.25" xml:space="preserve"><tspan x="110.65253" y="160.73438" font-family="sans-serif" font-size="3.5278px" stroke-width=".26458" text-align="center" text-anchor="middle" style="font-feature-settings:normal;font-variant-caps:normal;font-variant-ligatures:normal;font-variant-numeric:normal">00000...</tspan></text><rect x="121.71" y="156.1" width="22.49" height="6.6146" fill="#f4d7d7" stroke="#000" stroke-dasharray="0.52999997, 0.26499999" stroke-width=".265"/><text x="133.14209" y="160.73438" fill="#000000" font-family="sans-serif" font-size="10.583px" letter-spacing="0px" stroke-width=".26458" word-spacing="0px" style="line-height:1.25" xml:space="preserve"><tspan x="133.14209" y="160.73438" font-family="sans-serif" font-size="3.5278px" stroke-width=".26458" text-align="center" text-anchor="middle" style="font-feature-settings:normal;font-variant-caps:normal;font-variant-ligatures:normal;font-variant-numeric:normal">00000...</tspan></text><rect x="144.2" y="156.1" width="22.49" height="6.6146" fill="#f4d7d7" stroke="#000" stroke-dasharray="0.52999997, 0.26499999" stroke-width=".265"/><text x="155.63165" y="160.73438" fill="#000000" font-family="sans-serif" font-size="10.583px" letter-spacing="0px" stroke-width=".26458" word-spacing="0px" style="line-height:1.25" xml:space="preserve"><tspan x="155.63165" y="160.73438" font-family="sans-serif" font-size="3.5278px" stroke-width=".26458" text-align="center" text-anchor="middle" style="font-feature-settings:normal;font-variant-caps:normal;font-variant-ligatures:normal;font-variant-numeric:normal">00000...</tspan></text><text x="2.4342222" y="161.21635" fill="#000000" font-family="sans-serif" font-size="3.5278px" letter-spacing="0px" stroke-width=".26458" word-spacing="0px" style="font-feature-settings:normal;font-variant-caps:normal;font-variant-ligatures:normal;font-variant-numeric:normal;line-height:1.25" xml:space="preserve"><tspan x="2.4342222" y="161.21635" stroke-width=".26458">zeroes_dev</tspan></text><g fill="none"><rect x="31.75" y="141.55" width="22.49" height="6.6146" stroke="#000" stroke-dasharray="0.52916663, 0.52916663" stroke-width=".26458"/><rect x="54.24" y="141.55" width="22.49" height="6.6146" stroke="#000" stroke-dasharray="0.52916663, 0.52916663" stroke-width=".26458"/><rect x="23.813" y="124.35" width="145.52" height="11.906" ry="1.3229" stroke="#808080" stroke-width=".265"/><rect x="23.813" y="138.91" width="145.52" height="11.906" ry="1.3229" stroke="#808080" stroke-width=".265"/></g><path d="m115.09 111.12v15.875" fill="#00f" marker-end="url(#e)" stroke="#00f" stroke-width=".265"/><path d="m105.83 141.55v-7.9375" fill="#f00" marker-end="url(#h)" stroke="#ff2a2a" stroke-width=".265"/><g stroke="#000" stroke-width=".26458"><rect x="54.24" y="127" width="22.49" height="6.6146" fill="#ffe3be" stroke-dasharray="0.52916663, 0.52916663"/><rect x="144.2" y="127" width="22.49" height="6.6146" fill="none" stroke-dasharray="0.52916663, 0.52916663"/><rect x="54.24" y="104.51" width="22.49" height="6.6146" fill="#fff6d5"/></g><g><path d="m70.115 111.12v15.875" fill="#00f" marker-end="url(#d)" stroke="#00f" stroke-width=".265"/><path d="m60.854 156.1v-22.49" fill="#f00" marker-end="url(#g)" stroke="#ff2a2a" stroke-width=".265"/><rect x="76.729" y="104.51" width="22.49" height="6.6146" fill="#fff6d5" stroke="#000" stroke-width=".26458"/></g><g stroke-width=".265"><path d="m87.313 111.12v15.875" fill="#00f" marker-end="url(#b)" stroke="#00f"/><path d="m109.8 170.66 10.583 1e-5" fill="#00f" marker-end="url(#c)" stroke="#00f"/><path d="m109.8 175.95h10.583" fill="#f00" marker-end="url(#f)" stroke="#ff2a2a"/></g><g stroke-width=".26458"><text x="123.03123" y="171.97917" fill="#000000" font-family="sans-serif" font-size="3.5278px" letter-spacing="0px" word-spacing="0px" style="font-feature-settings:normal;font-variant-caps:normal;font-variant-ligatures:normal;font-variant-numeric:normal;line-height:1.25" xml:space="preserve"><tspan x="123.03123" y="171.97917" font-family="sans-serif" font-size="2.8222px" stroke-width=".26458" style="font-feature-settings:normal;font-variant-caps:normal;font-variant-ligatures:normal;font-variant-numeric:normal">write</tspan></text><text x="123.03123" y="177.27084" fill="#000000" font-family="sans-serif" font-size="3.5278px" letter-spacing="0px" word-spacing="0px" style="font-feature-settings:normal;font-variant-caps:normal;font-variant-ligatures:normal;font-variant-numeric:normal;line-height:1.25" xml:space="preserve"><tspan x="123.03123" y="177.27084" font-family="sans-serif" font-size="2.8222px" stroke-width=".26458" style="font-feature-settings:normal;font-variant-caps:normal;font-variant-ligatures:normal;font-variant-numeric:normal">allocate and copy cluster</tspan></text><rect x="109.8" y="179.92" width="10.583" height="2.6458" fill="none" stroke="#000" stroke-dasharray="0.52916663, 0.52916663"/><text x="123.03123" y="182.5625" fill="#000000" font-family="sans-serif" font-size="3.5278px" letter-spacing="0px" word-spacing="0px" style="font-feature-settings:normal;font-variant-caps:normal;font-variant-ligatures:normal;font-variant-numeric:normal;line-height:1.25" xml:space="preserve"><tspan x="123.03123" y="182.5625" font-family="sans-serif" font-size="2.8222px" stroke-width=".26458" style="font-feature-settings:normal;font-variant-caps:normal;font-variant-ligatures:normal;font-variant-numeric:normal">unallocated cluster before write</tspan></text></g><rect x="109.8" y="185.21" width="10.583" height="2.6458" fill="none" stroke="#000" stroke-width=".265"/><text x="123.03123" y="187.85417" fill="#000000" font-family="sans-serif" font-size="3.5278px" letter-spacing="0px" stroke-width=".26458" word-spacing="0px" style="font-feature-settings:normal;font-variant-caps:normal;font-variant-ligatures:normal;font-variant-numeric:normal;line-height:1.25" xml:space="preserve"><tspan x="123.03123" y="187.85417" font-family="sans-serif" font-size="2.8222px" stroke-width=".26458" style="font-feature-settings:normal;font-variant-caps:normal;font-variant-ligatures:normal;font-variant-numeric:normal">allocated cluster</tspan></text><g stroke="#000"><rect x="76.729" y="127" width="22.49" height="6.6146" fill="#fff6d5" stroke-width=".26458"/><path d="m6.6146 157.43v-9.2604" fill="none" marker-end="url(#a)" stroke-width=".26458px"/><path d="m6.6146 142.88v-9.2604" fill="none" marker-end="url(#Arrow1Mend)" stroke-width=".26458px"/></g></g></svg>
