<?xml version="1.0" encoding="UTF-8"?>
<svg width="193.94mm" height="139.71mm" version="1.1" viewBox="0 0 193.94 139.71" xmlns="http://www.w3.org/2000/svg" xmlns:cc="http://creativecommons.org/ns#" xmlns:dc="http://purl.org/dc/elements/1.1/" xmlns:rdf="http://www.w3.org/1999/02/22-rdf-syntax-ns#"><title>NVMe CUSE</title><defs><marker id="marker9353" overflow="visible" orient="auto"><path transform="matrix(-.8 0 0 -.8 -10 0)" d="m0 0 5-5-17.5 5 17.5 5z" fill-rule="evenodd" stroke="#000" stroke-width="1pt"/></marker><marker id="marker7156" overflow="visible" orient="auto"><path transform="matrix(.8 0 0 .8 10 0)" d="m0 0 5-5-17.5 5 17.5 5z" fill-rule="evenodd" stroke="#000" stroke-width="1pt"/></marker><marker id="marker4572" overflow="visible" orient="auto"><path transform="matrix(-.8 0 0 -.8 -10 0)" d="m0 0 5-5-17.5 5 17.5 5z" fill-rule="evenodd" stroke="#000" stroke-width="1pt"/></marker><marker id="marker4436" overflow="visible" orient="auto"><path transform="matrix(-.8 0 0 -.8 -10 0)" d="m0 0 5-5-17.5 5 17.5 5z" fill-rule="evenodd" stroke="#000" stroke-width="1pt"/></marker><marker id="marker4324" overflow="visible" orient="auto"><path transform="matrix(.8 0 0 .8 10 0)" d="m0 0 5-5-17.5 5 17.5 5z" fill-rule="evenodd" stroke="#000" stroke-width="1pt"/></marker><marker id="marker2300" overflow="visible" orient="auto"><path transform="matrix(-.8 0 0 -.8 -10 0)" d="m0 0 5-5-17.5 5 17.5 5z" fill-rule="evenodd" stroke="#000" stroke-width="1pt"/></marker><marker id="marker2110" overflow="visible" orient="auto"><path transform="matrix(-.8 0 0 -.8 -10 0)" d="m0 0 5-5-17.5 5 17.5 5z" fill-rule="evenodd" stroke="#000" stroke-width="1pt"/></marker><marker id="marker2028" overflow="visible" orient="auto"><path transform="matrix(-.8 0 0 -.8 -10 0)" d="m0 0 5-5-17.5 5 17.5 5z" fill-rule="evenodd" stroke="#000" stroke-width="1pt"/></marker><marker id="marker1219" overflow="visible" orient="auto"><path transform="matrix(.8 0 0 .8 10 0)" d="m0 0 5-5-17.5 5 17.5 5z" fill-rule="evenodd" stroke="#000" stroke-width="1pt"/></marker><marker id="Arrow1Lstart" overflow="visible" orient="auto"><path transform="matrix(.8 0 0 .8 10 0)" d="m0 0 5-5-17.5 5 17.5 5z" fill-rule="evenodd" stroke="#000" stroke-width="1pt"/></marker><marker id="marker1127" overflow="visible" orient="auto"><path transform="matrix(-.8 0 0 -.8 -10 0)" d="m0 0 5-5-17.5 5 17.5 5z" fill-rule="evenodd" stroke="#000" stroke-width="1pt"/></marker><marker id="Arrow1Lend" overflow="visible" orient="auto"><path transform="matrix(-.8 0 0 -.8 -10 0)" d="m0 0 5-5-17.5 5 17.5 5z" fill-rule="evenodd" stroke="#000" stroke-width="1pt"/></marker></defs><metadata><rdf:RDF><cc:Work rdf:about=""><dc:format>image/svg+xml</dc:format><dc:type rdf:resource="http://purl.org/dc/dcmitype/StillImage"/><dc:title>NVMe CUSE</dc:title></cc:Work></rdf:RDF></metadata><g transform="translate(-2.1066 -22.189)"><g fill="#fff" stroke="#000" stroke-width=".26458"><rect x="16.281" y="90.081" width="64.256" height="24.568"/><rect x="15.147" y="90.837" width="64.256" height="24.568"/><rect x="48.157" y="98.703" width="26.62" height="11.061"/><rect x="47.222" y="99.638" width="26.62" height="11.061"/></g><rect x="11.906" y="134.85" width="72.004" height="20.6" ry="3.7798" fill="none" stroke="#000" stroke-width=".5"/><text x="14.363094" y="149.02231" fill="#000000" font-family="sans-serif" font-size="10.583px" letter-spacing="0px" stroke-width=".26458" word-spacing="0px" style="line-height:1.25" xml:space="preserve"><tspan x="14.363094" y="149.02231" font-family="sans-serif" font-size="3.5278px" stroke-width=".26458" style="font-feature-settings:normal;font-variant-caps:normal;font-variant-ligatures:normal;font-variant-numeric:normal">/dev/spdk/nvme0</tspan></text><text x="47.625" y="149.02231" fill="#000000" font-family="sans-serif" font-size="10.583px" letter-spacing="0px" stroke-width=".26458" word-spacing="0px" style="line-height:1.25" xml:space="preserve"><tspan x="47.625" y="149.02231" font-family="sans-serif" font-size="3.5278px" stroke-width=".26458" writing-mode="lr" style="font-feature-settings:normal;font-variant-caps:normal;font-variant-ligatures:normal;font-variant-numeric:normal">/dev/spdk/nvme0n1</tspan></text><rect x="12.095" y="35.818" width="71.249" height="88.446" ry="4.3467" fill="none" stroke="#000" stroke-width=".5"/><rect x="133.43" y="33.929" width="62.366" height="76.351" ry="4.7247" fill="none" stroke="#000" stroke-width=".5"/><g fill="#fff" stroke="#000" stroke-width=".26458"><rect x="14.174" y="91.57" width="64.256" height="24.568"/><g fill-opacity=".9798"><rect x="48.328" y="98.725" width="26.62" height="11.061"/><rect x="47.194" y="99.67" width="26.62" height="11.061"/><rect x="46.302" y="100.64" width="26.62" height="11.061"/></g></g><g stroke="#000"><path d="m63.878 111.98v32.884" fill="none" marker-end="url(#marker1127)" marker-start="url(#Arrow1Lstart)" stroke-width=".26458px"/><g stroke-width=".265"><path d="m34.585 115.57v28.726" fill="none" marker-end="url(#Arrow1Lend)" marker-start="url(#marker1219)"/><rect x="136.07" y="39.787" width="54.996" height="58.586" fill="#fff"/><rect x="141.93" y="51.315" width="34.018" height="14.174" ry="7.0871" fill="none"/></g><path d="m117.17 22.211-24.379 139.66" fill="none" stroke-dasharray="1.5874999, 1.5874999" stroke-width=".26458"/></g><g fill="#fff" stroke="#000" stroke-width=".265"><rect x="91.592" y="52.189" width="38.365" height="8.8824"/><rect x="90.459" y="53.134" width="38.365" height="8.8824"/><rect x="89.58" y="54.339" width="38.365" height="8.8824"/></g><g fill="#000000" font-family="sans-serif" font-size="4.2333px" letter-spacing="0px" stroke-width=".26458" word-spacing="0px"><text x="93.54911" y="59.441967" style="font-feature-settings:normal;font-variant-caps:normal;font-variant-ligatures:normal;font-variant-numeric:normal;line-height:1.25" xml:space="preserve"><tspan x="93.54911" y="59.441967" stroke-width=".26458">io_msg queue</tspan></text><text x="11.906249" y="27.31399" style="font-feature-settings:normal;font-variant-caps:normal;font-variant-ligatures:normal;font-variant-numeric:normal;line-height:1.25" xml:space="preserve"><tspan x="11.906249" y="27.31399" stroke-width=".26458">CUSE threads</tspan></text><text x="165.36458" y="27.502975" style="font-feature-settings:normal;font-variant-caps:normal;font-variant-ligatures:normal;font-variant-numeric:normal;line-height:1.25" xml:space="preserve"><tspan x="165.36458" y="27.502975" stroke-width=".26458">SPDK threads</tspan></text></g><rect x="17.009" y="47.914" width="29.482" height="13.04" ry="6.5201" fill="#fff" stroke="#000" stroke-width=".265"/><rect x="49.42" y="68.041" width="28.915" height="13.04" ry="6.5201" fill="#fff" stroke="#000" stroke-width=".265"/><g fill="none" stroke="#000"><path d="m32.506 61.143v30.427" marker-start="url(#marker7156)" stroke-width=".26458px"/><path d="m63.689 81.176 0.18899 19.277" marker-start="url(#marker4324)" stroke-width=".265"/><g stroke-width=".26458px"><path d="m46.113 54.339h43.467" marker-end="url(#marker2028)"/><path d="m64.256 67.757c-0.29879-5.8187 0.1889-5.8957 25.702-5.8586" marker-end="url(#marker2110)"/><path d="m127.76 58.308h13.607" marker-end="url(#marker2300)"/></g></g><g fill="#000000" font-family="sans-serif" font-size="4.2333px" letter-spacing="0px" stroke-width=".26458" word-spacing="0px"><text x="138.90625" y="44.889877" style="font-feature-settings:normal;font-variant-caps:normal;font-variant-ligatures:normal;font-variant-numeric:normal;line-height:1.25" xml:space="preserve"><tspan x="138.90625" y="44.889877" stroke-width=".26458">NVMe</tspan></text><text x="16.063986" y="97.050598" style="font-feature-settings:normal;font-variant-caps:normal;font-variant-ligatures:normal;font-variant-numeric:normal;line-height:1.25" xml:space="preserve"><tspan x="16.063986" y="97.050598" stroke-width=".26458">CUSE ctrlr</tspan></text><text x="48.380947" y="106.12202" style="font-feature-settings:normal;font-variant-caps:normal;font-variant-ligatures:normal;font-variant-numeric:normal;line-height:1.25" xml:space="preserve"><tspan x="48.380947" y="106.12202" stroke-width=".26458">CUSE ns</tspan></text><text x="52.349705" y="75.883926" style="font-feature-settings:normal;font-variant-caps:normal;font-variant-ligatures:normal;font-variant-numeric:normal;line-height:1.25" xml:space="preserve"><tspan x="52.349705" y="75.883926" stroke-width=".26458">ioctl thread</tspan></text><text x="19.920382" y="55.917484" style="font-feature-settings:normal;font-variant-caps:normal;font-variant-ligatures:normal;font-variant-numeric:normal;line-height:1.25" xml:space="preserve"><tspan x="19.920382" y="55.917484" stroke-width=".26458">ioctl thread</tspan></text></g><path d="m148.92 86.656c0.38097 13.154 4.7828 10.056-70.115 9.4494" fill="none" marker-end="url(#marker4572)" stroke="#000" stroke-dasharray="0.79374995, 0.79374995" stroke-width=".26458"/><path d="m166.88 86.467c0.37797 22.25 5.9209 19.533-93.587 19.344" fill="none" marker-end="url(#marker4436)" stroke="#000" stroke-dasharray="0.79374995, 0.79374995" stroke-width=".26458"/><g fill="#000000" font-family="sans-serif" font-size="4.2333px" letter-spacing="0px" stroke-width=".26458" word-spacing="0px"><text x="13.229166" y="139.7619" style="font-feature-settings:normal;font-variant-caps:normal;font-variant-ligatures:normal;font-variant-numeric:normal;line-height:1.25" xml:space="preserve"><tspan x="13.229166" y="139.7619" stroke-width=".26458">Kernel</tspan></text><text x="14.552083" y="41.488094" style="font-feature-settings:normal;font-variant-caps:normal;font-variant-ligatures:normal;font-variant-numeric:normal;line-height:1.25" xml:space="preserve"><tspan x="14.552083" y="41.488094" stroke-width=".26458">CUSE</tspan></text><text x="149.67857" y="59.252975" style="font-feature-settings:normal;font-variant-caps:normal;font-variant-ligatures:normal;font-variant-numeric:normal;line-height:1.25" xml:space="preserve"><tspan x="149.67857" y="59.252975" stroke-width=".26458">io poller</tspan></text></g><g fill="none" stroke="#000"><path d="m127.6 133.64-125.49-5.4806" stroke-dasharray="1.58749992, 1.58749992" stroke-width=".26458"/><rect x="141.96" y="72.41" width="34.018" height="14.174" ry="7.0871" stroke-width=".265"/><path d="m158.97 65.512v6.9926" marker-end="url(#marker9353)" stroke-width=".265"/></g><g fill="#000000" font-family="sans-serif" font-size="4.2333px" letter-spacing="0px" stroke-width=".26458" word-spacing="0px"><text x="148.57236" y="80.44239" style="font-feature-settings:normal;font-variant-caps:normal;font-variant-ligatures:normal;font-variant-numeric:normal;line-height:1.25" xml:space="preserve"><tspan x="148.57236" y="80.44239" stroke-width=".26458">io execute</tspan></text><text x="162.36847" y="70.237038" style="font-feature-settings:normal;font-variant-caps:normal;font-variant-ligatures:normal;font-variant-numeric:normal;line-height:1.25" xml:space="preserve"><tspan x="162.36847" y="70.237038" font-family="sans-serif" font-size="3.5278px" stroke-width=".26458" style="font-feature-settings:normal;font-variant-caps:normal;font-variant-ligatures:normal;font-variant-numeric:normal">fn(arg)</tspan></text><text x="58.803009" y="52.283169" style="font-feature-settings:normal;font-variant-caps:normal;font-variant-ligatures:normal;font-variant-numeric:normal;line-height:1.25" xml:space="preserve"><tspan x="58.803009" y="52.283169" font-family="sans-serif" font-size="3.5278px" stroke-width=".26458" style="font-feature-settings:normal;font-variant-caps:normal;font-variant-ligatures:normal;font-variant-numeric:normal">io_msg send</tspan></text><text x="59.122295" y="59.821899" style="font-feature-settings:normal;font-variant-caps:normal;font-variant-ligatures:normal;font-variant-numeric:normal;line-height:1.25" xml:space="preserve"><tspan x="59.122295" y="59.821899" font-family="sans-serif" font-size="3.5278px" stroke-width=".26458" style="font-feature-settings:normal;font-variant-caps:normal;font-variant-ligatures:normal;font-variant-numeric:normal">io_msg send</tspan></text></g></g></svg>
